<?xml version="1.0" encoding="UTF-8"?>
<svg id="Layer_1" data-name="Layer 1" xmlns="http://www.w3.org/2000/svg" viewBox="0 0 1080 1080">
  <defs>
    <style>
      .cls-1 {
        fill: #b6ff1c;
        stroke: #231f20;
        stroke-miterlimit: 10;
        stroke-width: 12px;
      }
    </style>
  </defs>
  <path class="cls-1" d="M998.5,875.69l-50.98-101.27c-1.4-2.77-4.23-4.52-7.34-4.52l-219.69-15.83-42.19,133.95,312.86-.42c4.54,0,8.22-3.68,8.22-8.22h0c0-1.28-.3-2.55-.88-3.69Z"/>
  <path class="cls-1" d="M157.92,480.92l96.46-265.93c5.01-13.82,18.14-23.02,32.83-23.02h279.75c23.71,0,40.53,23.12,33.23,45.68l-86.03,265.93c-4.66,14.41-18.08,24.17-33.23,24.17H190.75c-24.23,0-41.09-24.06-32.83-46.83Z"/>
  <path class="cls-1" d="M551.05,497.39l62.53-172.38c3.25-8.96,11.76-14.92,21.28-14.92h181.33c15.37,0,26.27,14.99,21.54,29.61l-55.77,172.38c-3.02,9.34-11.72,15.67-21.54,15.67h-188.09c-15.7,0-26.64-15.6-21.28-30.36Z"/>
  <path class="cls-1" d="M91.05,739.54l62.53-172.38c3.25-8.96,11.76-14.92,21.28-14.92h181.33c15.37,0,26.27,14.99,21.54,29.61l-55.77,172.38c-3.02,9.34-11.72,15.67-21.54,15.67H112.33c-15.7,0-26.64-15.6-21.28-30.36Z"/>
  <path class="cls-1" d="M328.74,841.19l96.46-265.93c5.01-13.82,18.14-23.02,32.83-23.02h279.75c23.71,0,40.53,23.12,33.23,45.68l-2.48,7.67-91.37,282.43h-315.58c-24.23,0-41.09-24.06-32.83-46.83Z"/>
</svg>