<svg xmlns="http://www.w3.org/2000/svg" version="1.1" xmlns:xlink="http://www.w3.org/1999/xlink" width="1000" height="1000"><g clip-path="url(#SvgjsClipPath1102)"><rect width="1000" height="1000" fill="#000000"></rect><g transform="matrix(0.8333333333333334,0,0,0.8333333333333334,50,50)"><svg xmlns="http://www.w3.org/2000/svg" version="1.1" xmlns:xlink="http://www.w3.org/1999/xlink" width="1080" height="1080"><svg id="Layer_1" data-name="Layer 1" xmlns="http://www.w3.org/2000/svg" viewBox="0 0 1080 1080">
  <defs>
    <style>
      .cls-1 {
        fill: #b6ff1c;
        stroke: #fff;
        stroke-miterlimit: 10;
        stroke-width: 12px;
      }
    </style>
  <clipPath id="SvgjsClipPath1102"><rect width="1000" height="1000" x="0" y="0" rx="350" ry="350"></rect></clipPath></defs>
  <path class="cls-1" d="M993.97,875.69l-50.98-101.27c-1.4-2.77-4.23-4.52-7.34-4.52l-219.69-15.83-42.19,133.95,312.86-.42c4.54,0,8.22-3.68,8.22-8.22h0c0-1.28-.3-2.55-.88-3.69Z"></path>
  <path class="cls-1" d="M153.39,480.92l96.46-265.93c5.01-13.82,18.14-23.02,32.83-23.02h279.75c23.71,0,40.53,23.12,33.23,45.68l-86.03,265.93c-4.66,14.41-18.08,24.17-33.23,24.17H186.22c-24.23,0-41.09-24.06-32.83-46.83Z"></path>
  <path class="cls-1" d="M546.53,497.39l62.53-172.38c3.25-8.96,11.76-14.92,21.28-14.92h181.33c15.37,0,26.27,14.99,21.54,29.61l-55.77,172.38c-3.02,9.34-11.72,15.67-21.54,15.67h-188.09c-15.7,0-26.64-15.6-21.28-30.36Z"></path>
  <path class="cls-1" d="M86.52,739.54l62.53-172.38c3.25-8.96,11.76-14.92,21.28-14.92h181.33c15.37,0,26.27,14.99,21.54,29.61l-55.77,172.38c-3.02,9.34-11.72,15.67-21.54,15.67H107.81c-15.7,0-26.64-15.6-21.28-30.36Z"></path>
  <path class="cls-1" d="M324.21,841.19l96.46-265.93c5.01-13.82,18.14-23.02,32.83-23.02h279.75c23.71,0,40.53,23.12,33.23,45.68l-2.48,7.67-91.37,282.43h-315.58c-24.23,0-41.09-24.06-32.83-46.83Z"></path>
</svg></svg></g></g></svg>